<svg width="120" height="24" viewBox="0 0 120 24" fill="none" xmlns="http://www.w3.org/2000/svg">
<g clip-path="url(#clip0_254_6631)">
<path fill-rule="evenodd" clip-rule="evenodd" d="M0.875326 2.89019L3.86618 2.0025L10.8406 0.000244141L20.6318 2.874L21.137 8.18047L17.9844 8.21247L17.5564 5.22015L10.9766 3.21765L3.70094 5.18343L3.46174 7.05677C2.6708 13.2518 3.70451 17.1566 10.4738 20.3151L15.7353 16.661L15.304 20.938L10.4728 24.0003C2.71076 19.5048 -2.0612 16.9205 0.875326 2.89031V2.89019Z" fill="#282829"/>
<path fill-rule="evenodd" clip-rule="evenodd" d="M11.5596 9.33442L21.2801 9.30469L21.3739 11.8867C20.6558 15.8451 18.8712 18.3761 15.8908 20.6535C17.0779 18.1616 17.8994 14.619 18.1305 11.9094L11.7552 11.9537C12.2424 11.7369 12.5822 11.2479 12.5822 10.6789C12.5822 10.037 12.1486 9.49582 11.5596 9.33442Z" fill="#282829"/>
<path d="M10.4234 12.0727C11.1904 12.0727 11.8121 11.4488 11.8121 10.6791C11.8121 9.90946 11.1904 9.28552 10.4234 9.28552C9.65642 9.28552 9.03467 9.90946 9.03467 10.6791C9.03467 11.4488 9.65642 12.0727 10.4234 12.0727Z" fill="#282829"/>
<path d="M34.4136 5.79203C29.8377 5.79203 27.293 8.32435 27.293 13.5029C27.293 18.6587 29.8143 21.1909 34.4136 21.1909H36.8416C40.3669 21.1909 41.7443 19.0693 41.7443 16.3774C41.7443 13.7082 40.3669 12.02 37.5653 12.02H33.7832V14.3698H37.2852C38.5693 14.3698 39.2229 15.0998 39.2229 16.3318C39.2229 17.5865 38.5693 18.499 37.0284 18.499H34.4136C31.3553 18.499 30.0479 17.0161 30.0479 13.5029C30.0479 9.96689 31.3786 8.48403 34.4136 8.48403H40.9039V5.79209H34.4136L34.4136 5.79203ZM41.9893 9.14552V16.4458C41.9893 19.229 43.8103 21.1909 47.3356 21.1909H49.6235C53.1488 21.1909 54.9698 19.229 54.9698 16.4458V9.14552H52.5418V16.3545C52.5418 17.7689 51.4913 18.8412 49.5301 18.8412H47.5224C45.5613 18.8412 44.4873 17.7689 44.4873 16.3545V9.14552H41.9893ZM56.242 9.14552V11.4725H63.6194C64.9735 11.4725 65.5104 12.2025 65.5104 13.1378V14.0503H59.6506C56.6155 14.0503 55.4949 15.3278 55.4949 17.5179C55.4949 19.7992 56.709 21.1909 59.6272 21.1909H65.3938C67.4716 21.1909 67.9385 20.5064 67.9385 18.7726V13.115C67.9385 10.8337 66.7245 9.14546 63.6428 9.14546H56.242V9.14552ZM64.8334 18.8412H59.6506C58.4132 18.8412 57.923 18.2708 57.923 17.381C57.923 16.4913 58.3899 15.9667 59.6973 15.9667H65.5105V18.2251C65.5105 18.6586 65.3237 18.8411 64.8335 18.8411L64.8334 18.8412ZM72.0589 9.14552C69.6309 9.14552 68.7204 10.2405 68.7204 12.6588V21.1909H71.1951V13.0238C71.1951 11.9744 71.6854 11.4725 72.7827 11.4725H77.125V9.14559H72.0589V9.14552ZM87.0588 3.92133V9.14552H81.6191C78.3273 9.14552 76.2728 11.1075 76.2728 15.1682C76.2728 19.2289 78.3273 21.1909 81.6191 21.1909H85.0277C87.9693 21.1909 89.5568 19.5027 89.5568 16.0351V3.92126H87.0588V3.92133ZM84.3039 18.8412H81.8526C79.7281 18.8412 78.7709 17.7689 78.7709 15.1682C78.7709 12.5675 79.7281 11.4725 81.8526 11.4725H87.0588V15.9211C87.0588 17.9742 86.2884 18.8412 84.304 18.8412H84.3039ZM89.1481 9.14552V11.4725H90.8291V17.0389C90.8291 20.1871 91.9263 21.1909 94.4711 21.1909H96.6889V18.978H94.9847C93.8174 18.978 93.3272 18.5218 93.3272 17.1758V11.4725H96.7357V9.14559H93.3272V6.29396H90.8291V9.14559H89.1481V9.14552ZM99.7588 9.14552C97.3308 9.14552 96.4203 10.2405 96.4203 12.6588V21.1909H98.895V13.0238C98.895 11.9744 99.3853 11.4725 100.483 11.4725H104.825V9.14559H99.7588V9.14552ZM109.319 9.14552C106.027 9.14552 103.973 11.1075 103.973 15.1682C103.973 19.2289 106.027 21.1909 109.319 21.1909H111.91C115.179 21.1909 117.257 19.2289 117.257 15.1682C117.257 11.1075 115.179 9.14552 111.91 9.14552H109.319ZM111.677 11.4725C113.801 11.4725 114.759 12.5675 114.759 15.1682C114.759 17.7689 113.801 18.8412 111.677 18.8412H109.552C107.405 18.8412 106.471 17.7689 106.471 15.1682C106.471 12.5675 107.405 11.4725 109.552 11.4725H111.677ZM117.525 3.92133V21.1909H120V3.92133H117.525Z" fill="#282829"/>
</g>
<defs>
<clipPath id="clip0_254_6631">
<rect width="120" height="24" fill="white"/>
</clipPath>
</defs>
</svg>
