<svg width="16" height="17" viewBox="0 0 16 17" fill="none" xmlns="http://www.w3.org/2000/svg">
<path fill-rule="evenodd" clip-rule="evenodd" d="M0.619677 2.04704L2.7382 1.41826L7.67838 0L14.6138 2.03558L14.9717 5.79432L12.7386 5.81699L12.4354 3.69743L7.77477 2.279L2.62115 3.67143L2.45172 4.99837C1.89147 9.38655 2.62368 12.1524 7.41857 14.3897L11.1455 11.8014L10.84 14.8309L7.4179 17C1.91978 13.8158 -1.46036 11.9852 0.619677 2.04713V2.04704Z" fill="#282829"/>
<path fill-rule="evenodd" clip-rule="evenodd" d="M8.18768 6.6117L15.073 6.59064L15.1395 8.41953C14.6309 11.2234 13.3668 13.0162 11.2556 14.6294C12.0965 12.8643 12.6784 10.3549 12.8421 8.43564L8.32623 8.46699C8.67137 8.31345 8.91203 7.96708 8.91203 7.56405C8.91203 7.10934 8.60493 6.72602 8.18768 6.6117Z" fill="#282829"/>
</svg>
